<svg height="700" width="960" xmlns="http://www.w3.org/2000/svg">
<title>Your Diagram Title</title>
<!-- Generated with SankeyMATIC: 4/24/2024, 9:28:44 AM -->
<g transform="translate(107.28109,5)">
<g id="sankey_flows">
<path id="flow0" d="M5 122.6316C103.36208 122.6316 140.83334 119.74864 239.19542 119.74864" fill="none" stroke-width="72.00695" stroke="#17becf" opacity="0.45"><title>PETROLEO → REFINERIAS: 834,133.0</title></path>
<path id="flow13" d="M244.19542 163.23368C342.55749 163.23368 380.02876 445.9961 478.39083 445.9961" fill="none" stroke-width="45.25649" stroke="#1f77b4" opacity="0.45"><title>REFINERIAS → TRANSPORTE: 524,254.0</title></path>
<path id="flow20" d="M244.19542 338.0216C342.55749 338.0216 380.02876 491.25259 478.39083 491.25259" fill="none" stroke-width="45.25649" stroke="#2ca02c" opacity="0.45"><title>ELECTRICIDAD → TRANSPORTE: 524,254.0</title></path>
<path id="flow32" d="M5 571.47177C203.82415 571.47177 279.56668 536.50908 478.39083 536.50908" fill="none" stroke-width="45.25649" stroke="#d62728" opacity="0.45"><title>GAS NATURAL → TRANSPORTE: 524,254.0</title></path>
<path id="flow12" d="M244.19542 126.60064C342.55749 126.60064 380.02876 277.56463 478.39083 277.56463" fill="none" stroke-width="28.0096" stroke="#1f77b4" opacity="0.45"><title>REFINERIAS → INDUSTRIAL: 324,465.0</title></path>
<path id="flow19" d="M244.19542 301.38856C342.55749 301.38856 380.02876 305.57424 478.39083 305.57424" fill="none" stroke-width="28.0096" stroke="#2ca02c" opacity="0.45"><title>ELECTRICIDAD → INDUSTRIAL: 324,465.0</title></path>
<path id="flow26" d="M5 627.86482C203.82415 627.86482 279.56668 389.60305 478.39083 389.60305" fill="none" stroke-width="28.0096" stroke="#7f7f7f" opacity="0.45"><title>BAGAZO → INDUSTRIAL: 324,465.0</title></path>
<path id="flow28" d="M5 318.56283v28.0096L478.39083 347.58865v-28.0096z" fill="#ff7f0e" stroke-width="0.5" stroke="#ff7f0e" opacity="0.45"><title>CARBON  MINERAL → INDUSTRIAL: 324,465.0</title></path>
<path id="flow31" d="M5 534.83872C203.82415 534.83872 279.56668 361.59345 478.39083 361.59345" fill="none" stroke-width="28.0096" stroke="#d62728" opacity="0.45"><title>GAS NATURAL → INDUSTRIAL: 324,465.0</title></path>
<path id="flow43" d="M483.39083 455.0474C581.75291 455.0474 619.22418 424.61392 717.58625 424.61392" fill="none" stroke-width="27.15389" stroke="#8c564b" opacity="0.45"><title>TRANSPORTE → PERDIDAS: 314,552.4</title></path>
<path id="flow10" d="M244.19542 95.10011C342.55749 95.10011 380.02876 105.37286 478.39083 105.37286" fill="none" stroke-width="22.70991" stroke="#1f77b4" opacity="0.45"><title>REFINERIAS → RESIDENCIAL: 263,073.0</title></path>
<path id="flow17" d="M244.19542 269.88804C342.55749 269.88804 380.02876 150.79267 478.39083 150.79267" fill="none" stroke-width="22.70991" stroke="#2ca02c" opacity="0.45"><title>ELECTRICIDAD → RESIDENCIAL: 263,073.0</title></path>
<path id="flow25" d="M5 53.72511C203.82415 53.72511 279.56668 82.66295 478.39083 82.66295" fill="none" stroke-width="22.70991" stroke="#1f77b4" opacity="0.45"><title>LEÑA → RESIDENCIAL: 263,073.0</title></path>
<path id="flow27" d="M5 303.81313C203.82415 303.81313 279.56668 128.08277 478.39083 128.08277" fill="none" stroke-width="22.70991" stroke="#ff7f0e" opacity="0.45"><title>CARBON  MINERAL → RESIDENCIAL: 263,073.0</title></path>
<path id="flow29" d="M5 503.3382C203.82415 503.3382 279.56668 173.50258 478.39083 173.50258" fill="none" stroke-width="22.70991" stroke="#d62728" opacity="0.45"><title>GAS NATURAL → RESIDENCIAL: 263,073.0</title></path>
<path id="flow4" d="M5 375.62015C103.36208 375.62015 140.83334 355.08699 239.19542 355.08699" fill="none" stroke-width="18.57544" stroke="#9467bd" opacity="0.45"><title>HIDROELECTRICIDAD → ELECTRICIDAD: 215,179.0</title></path>
<path id="flow36" d="M483.39083 432.41915C581.75291 432.41915 619.22418 343.93301 717.58625 343.93301" fill="none" stroke-width="18.1026" stroke="#8c564b" opacity="0.45"><title>TRANSPORTE → CONSUMO UTIL: 209,701.6</title></path>
<path id="flow42" d="M483.39083 395.20497C581.75291 395.20497 619.22418 402.63409 717.58625 402.63409" fill="none" stroke-width="16.80576" stroke="#9467bd" opacity="0.45"><title>INDUSTRIAL → PERDIDAS: 194,679.0</title></path>
<path id="flow40" d="M483.39083 178.04457C581.75291 178.04457 619.22418 383.73378 717.58625 383.73378" fill="none" stroke-width="13.62595" stroke="#2ca02c" opacity="0.45"><title>RESIDENCIAL → PERDIDAS: 157,843.8</title></path>
<path id="flow35" d="M483.39083 381.20017C581.75291 381.20017 619.22418 329.27979 717.58625 329.27979" fill="none" stroke-width="11.20384" stroke="#9467bd" opacity="0.45"><title>INDUSTRIAL → CONSUMO UTIL: 129,786.0</title></path>
<path id="flow33" d="M483.39083 166.68961C581.75291 166.68961 619.22418 316.67958 717.58625 316.67958" fill="none" stroke-width="9.08396" stroke="#2ca02c" opacity="0.45"><title>RESIDENCIAL → CONSUMO UTIL: 105,229.2</title></path>
<path id="flow2" d="M5 488.63529C103.36208 488.63529 140.83334 367.74313 239.19542 367.74313" fill="none" stroke-width="6.69592" stroke="#d62728" opacity="0.45"><title>GAS NATURAL → ELECTRICIDAD: 77,566.0</title></path>
<path id="flow11" d="M244.19542 109.52545C342.55749 109.52545 380.02876 228.44792 478.39083 228.44792" fill="none" stroke-width="6.14076" stroke="#1f77b4" opacity="0.45"><title>REFINERIAS → COMERCIAL: 71,135.0</title></path>
<path id="flow18" d="M244.19542 284.31337C342.55749 284.31337 380.02876 234.58869 478.39083 234.58869" fill="none" stroke-width="6.14076" stroke="#2ca02c" opacity="0.45"><title>ELECTRICIDAD → COMERCIAL: 71,135.0</title></path>
<path id="flow30" d="M5 517.76354C203.82415 517.76354 279.56668 240.72945 478.39083 240.72945" fill="none" stroke-width="6.14076" stroke="#d62728" opacity="0.45"><title>GAS NATURAL → COMERCIAL: 71,135.0</title></path>
<path id="flow16" d="M244.19542 192.39289C342.55749 192.39289 380.02876 609.50188 478.39083 609.50188" fill="none" stroke-width="4.43471" stroke="#1f77b4" opacity="0.45"><title>REFINERIAS → OTROS: 51,372.0</title></path>
<path id="flow23" d="M244.19542 367.18081C342.55749 367.18081 380.02876 613.9366 478.39083 613.9366" fill="none" stroke-width="4.43471" stroke="#2ca02c" opacity="0.45"><title>ELECTRICIDAD → OTROS: 51,372.0</title></path>
<path id="flow15" d="M244.19542 188.01873C342.55749 188.01873 380.02876 581.05413 478.39083 581.05413" fill="none" stroke-width="4.3136" stroke="#1f77b4" opacity="0.45"><title>REFINERIAS → MINERO: 49,969.0</title></path>
<path id="flow22" d="M244.19542 362.80665C342.55749 362.80665 380.02876 585.36773 478.39083 585.36773" fill="none" stroke-width="4.3136" stroke="#2ca02c" opacity="0.45"><title>ELECTRICIDAD → MINERO: 49,969.0</title></path>
<path id="flow41" d="M483.39083 241.9576C581.75291 241.9576 619.22418 392.38898 717.58625 392.38898" fill="none" stroke-width="3.68446" stroke="#d62728" opacity="0.45"><title>COMERCIAL → PERDIDAS: 42,681.0</title></path>
<path id="flow1" d="M5 316.86546C103.36208 316.86546 140.83334 344.1019 239.19542 344.1019" fill="none" stroke-width="3.39475" stroke="#ff7f0e" opacity="0.45"><title>CARBON  MINERAL → ELECTRICIDAD: 39,325.0</title></path>
<path id="flow46" d="M483.39083 610.38882C581.75291 610.38882 619.22418 442.10944 717.58625 442.10944" fill="none" stroke-width="2.66083" stroke="#17becf" opacity="0.45"><title>OTROS → PERDIDAS: 30,823.2</title></path>
<path id="flow45" d="M483.39083 581.91685C581.75291 581.91685 619.22418 439.48494 717.58625 439.48494" fill="none" stroke-width="2.58816" stroke="#7f7f7f" opacity="0.45"><title>MINERO → PERDIDAS: 29,981.4</title></path>
<path id="flow34" d="M483.39083 238.88722C581.75291 238.88722 619.22418 322.44971 717.58625 322.44971" fill="none" stroke-width="2.45631" stroke="#d62728" opacity="0.45"><title>COMERCIAL → CONSUMO UTIL: 28,454.0</title></path>
<path id="flow8" d="M5 0v1.80558L717.58625 1.80558v-1.80558z" fill="#17becf" stroke-width="0.5" stroke="#17becf" opacity="0.45"><title>OTROS BIOMASA → PLANTAS BIODIESEL: 20,916.0</title></path>
<path id="flow39" d="M483.39083 608.17147C581.75291 608.17147 619.22418 355.59669 717.58625 355.59669" fill="none" stroke-width="1.77389" stroke="#17becf" opacity="0.45"><title>OTROS → CONSUMO UTIL: 20,548.8</title></path>
<path id="flow38" d="M483.39083 579.76005C581.75291 579.76005 619.22418 353.84703 717.58625 353.84703" fill="none" stroke-width="1.72544" stroke="#7f7f7f" opacity="0.45"><title>MINERO → CONSUMO UTIL: 19,987.6</title></path>
<path id="flow14" d="M244.19542 195.45671C342.55749 195.45671 380.02876 636.76042 478.39083 636.76042" fill="none" stroke-width="1.69293" stroke="#1f77b4" opacity="0.45"><title>REFINERIAS → AGRICOLA: 19,611.0</title></path>
<path id="flow21" d="M244.19542 370.24463C342.55749 370.24463 380.02876 638.45335 478.39083 638.45335" fill="none" stroke-width="1.69293" stroke="#2ca02c" opacity="0.45"><title>ELECTRICIDAD → AGRICOLA: 19,611.0</title></path>
<path id="flow24" d="M5 66.02166C203.82415 66.02166 279.56668 640.14628 478.39083 640.14628" fill="none" stroke-width="1.69293" stroke="#1f77b4" opacity="0.45"><title>LEÑA → AGRICOLA: 19,611.0</title></path>
<path id="flow3" d="M5 484.51963C103.36208 484.51963 140.83334 156.5198 239.19542 156.5198" fill="none" stroke-width="1.53539" stroke="#d62728" opacity="0.45"><title>GAS NATURAL → REFINERIAS: 17,786.0</title></path>
<path id="flow44" d="M483.39083 637.099C581.75291 637.099 619.22418 443.94773 717.58625 443.94773" fill="none" stroke-width="1.01576" stroke="#e377c2" opacity="0.45"><title>AGRICOLA → PERDIDAS: 11,766.6</title></path>
<path id="flow7" d="M5 642.29689C304.28623 642.29689 418.30003 661.18001 717.58625 661.18001" fill="none" stroke-width="1" stroke="#7f7f7f" opacity="0.45"><title>BAGAZO → PLANTAS DE DESTILACION: 9,899.0</title></path>
<path id="flow37" d="M483.39083 636.25254C581.75291 636.25254 619.22418 356.82222 717.58625 356.82222" fill="none" stroke-width="1" stroke="#e377c2" opacity="0.45"><title>AGRICOLA → CONSUMO UTIL: 7,844.4</title></path>
<path id="flow9" d="M5 65.12763C304.28623 65.12763 418.30003 204.6651 717.58625 204.6651" fill="none" stroke-width="1" stroke="#1f77b4" opacity="0.45"><title>LEÑA → CARBONERAS: 1,102.0</title></path>
<path id="flow5" d="M5 404.6765C103.36208 404.6765 140.83334 364.38334 239.19542 364.38334" fill="none" stroke-width="1" stroke="#8c564b" opacity="0.45"><title>SOLAR → ELECTRICIDAD: 200.0</title></path>
<path id="flow6" d="M5 425.42947C103.36208 425.42947 140.83334 364.39357 239.19542 364.39357" fill="none" stroke-width="1" stroke="#e377c2" opacity="0.45"><title>EÓLICO → ELECTRICIDAD: 37.0</title></path>
</g>
<g id="sankey_nodes">
<g class="node">
<rect id="r0" class="for_r0" x="0" y="86.62812" height="72.00695" width="5" fill="#17becf" fill-opacity="1"><title>PETROLEO:
834,133.0</title></rect>
</g>
<g class="node">
<rect id="r1" class="for_r1" x="239.19542" y="83.74516" height="112.55801" width="5" fill="#1f77b4" fill-opacity="1"><title>REFINERIAS:
1,303,879.0</title></rect>
</g>
<g class="node">
<rect id="r2" class="for_r2" x="0" y="292.45817" height="54.11426" width="5" fill="#ff7f0e" fill-opacity="1"><title>CARBON  MINERAL:
626,863.0</title></rect>
</g>
<g class="node">
<rect id="r3" class="for_r3" x="239.19542" y="258.53308" height="112.55801" width="5" fill="#2ca02c" fill-opacity="1"><title>ELECTRICIDAD:
1,303,879.0</title></rect>
</g>
<g class="node">
<rect id="r4" class="for_r4" x="0" y="483.75194" height="110.34808" width="5" fill="#d62728" fill-opacity="1"><title>GAS NATURAL:
1,278,279.0</title></rect>
</g>
<g class="node">
<rect id="r5" class="for_r5" x="0" y="366.33244" height="18.57544" width="5" fill="#9467bd" fill-opacity="1"><title>HIDROELECTRICIDAD:
215,179.0</title></rect>
</g>
<g class="node">
<rect id="r6" class="for_r6" x="0" y="404.66787" height="1" width="5" fill="#8c564b" fill-opacity="1"><title>SOLAR:
200.0</title></rect>
</g>
<g class="node">
<rect id="r7" class="for_r7" x="0" y="425.42787" height="1" width="5" fill="#e377c2" fill-opacity="1"><title>EÓLICO:
37.0</title></rect>
</g>
<g class="node">
<rect id="r8" class="for_r8" x="0" y="613.86002" height="28.86414" width="5" fill="#7f7f7f" fill-opacity="1"><title>BAGAZO:
334,364.0</title></rect>
</g>
<g class="node">
<rect id="r9" class="for_r9" x="717.58625" y="660.75274" height="1" width="5" fill="#bcbd22" fill-opacity="1"><title>PLANTAS DE DESTILACION:
9,899.0</title></rect>
</g>
<g class="node">
<rect id="r10" class="for_r10" x="0" y="0" height="1.80558" width="5" fill="#17becf" fill-opacity="1"><title>OTROS BIOMASA:
20,916.0</title></rect>
</g>
<g class="node">
<rect id="r11" class="for_r11" x="717.58625" y="0" height="1.80558" width="5" fill="#bcbd22" fill-opacity="1"><title>PLANTAS BIODIESEL:
20,916.0</title></rect>
</g>
<g class="node">
<rect id="r12" class="for_r12" x="0" y="42.37015" height="24.49797" width="5" fill="#1f77b4" fill-opacity="1"><title>LEÑA:
283,786.0</title></rect>
</g>
<g class="node">
<rect id="r13" class="for_r13" x="717.58625" y="204.61754" height="1" width="5" fill="#ff7f0e" fill-opacity="1"><title>CARBONERAS:
1,102.0</title></rect>
</g>
<g class="node">
<rect id="r14" class="for_r14" x="478.39083" y="71.30799" height="113.54955" width="5" fill="#2ca02c" fill-opacity="1"><title>RESIDENCIAL:
1,315,365.0</title></rect>
</g>
<g class="node">
<rect id="r15" class="for_r15" x="478.39083" y="225.37754" height="18.42229" width="5" fill="#d62728" fill-opacity="1"><title>COMERCIAL:
213,405.0</title></rect>
</g>
<g class="node">
<rect id="r16" class="for_r16" x="478.39083" y="263.55983" height="140.04802" width="5" fill="#9467bd" fill-opacity="1"><title>INDUSTRIAL:
1,622,325.0</title></rect>
</g>
<g class="node">
<rect id="r17" class="for_r17" x="478.39083" y="423.36786" height="135.76947" width="5" fill="#8c564b" fill-opacity="1"><title>TRANSPORTE:
1,572,762.0</title></rect>
</g>
<g class="node">
<rect id="r18" class="for_r18" x="478.39083" y="635.91395" height="5.07879" width="5" fill="#e377c2" fill-opacity="1"><title>AGRICOLA:
58,833.0</title></rect>
</g>
<g class="node">
<rect id="r19" class="for_r19" x="478.39083" y="578.89733" height="8.6272" width="5" fill="#7f7f7f" fill-opacity="1"><title>MINERO:
99,938.0</title></rect>
</g>
<g class="node">
<rect id="r20" class="for_r20" x="478.39083" y="607.28453" height="8.86943" width="5" fill="#17becf" fill-opacity="1"><title>OTROS:
102,744.0</title></rect>
</g>
<g class="node">
<rect id="r21" class="for_r21" x="717.58625" y="312.1376" height="45.0232" width="5" fill="#bcbd22" fill-opacity="1"><title>CONSUMO UTIL:
521,551.6</title></rect>
</g>
<g class="node">
<rect id="r22" class="for_r22" x="717.58625" y="376.9208" height="67.53481" width="5" fill="#17becf" fill-opacity="1"><title>PERDIDAS:
782,327.4</title></rect>
</g>
</g>
<g id="sankey_labels" font-family="sans-serif" font-size="10px" fill="#000000">
<rect id="label0_bg" class="for_r0" x="-56.125" y="115.73161" width="55.42839" height="13.6" rx="2.5" fill="#fff" fill-opacity="0.5" stroke="none" stroke-width="0" stroke-opacity="0"></rect>
<text id="label0" class="for_r0" text-anchor="end" x="-3.9375" y="122.6316" font-weight="400" font-size="9px" dy="2.9">PETROLEO</text>
<rect id="label1_bg" class="for_r1" x="211.77355" y="133.12418" width="60.09375" height="13.6" rx="2.5" fill="#fff" fill-opacity="0.5" stroke="none" stroke-width="0" stroke-opacity="0"></rect>
<text id="label1" class="for_r1" text-anchor="middle" x="241.69542" y="140.02417" font-weight="400" font-size="9px" dy="2.9">REFINERIAS</text>
<rect id="label2_bg" class="for_r2" x="-88.125" y="312.61531" width="87.42448" height="13.6" rx="2.5" fill="#fff" fill-opacity="0.5" stroke="none" stroke-width="0" stroke-opacity="0"></rect>
<text id="label2" class="for_r2" text-anchor="end" x="-3.9375" y="319.5153" font-weight="400" font-size="9px" dy="2.9">CARBON  MINERAL</text>
<rect id="label3_bg" class="for_r3" x="205.77355" y="307.9121" width="72.26075" height="13.6" rx="2.5" fill="#fff" fill-opacity="0.5" stroke="none" stroke-width="0" stroke-opacity="0"></rect>
<text id="label3" class="for_r3" text-anchor="middle" x="241.69542" y="314.81209" font-weight="400" font-size="9px" dy="2.9">ELECTRICIDAD</text>
<rect id="label4_bg" class="for_r4" x="-69.95834" y="532.02593" width="69.25749" height="13.6" rx="2.5" fill="#fff" fill-opacity="0.5" stroke="none" stroke-width="0" stroke-opacity="0"></rect>
<text id="label4" class="for_r4" text-anchor="end" x="-3.9375" y="538.92598" font-weight="400" font-size="9px" dy="2.9">GAS NATURAL</text>
<rect id="label5_bg" class="for_r5" x="-102.11459" y="368.72014" width="101.26026" height="13.6" rx="2.5" fill="#fff" fill-opacity="0.5" stroke="none" stroke-width="0" stroke-opacity="0"></rect>
<text id="label5" class="for_r5" text-anchor="end" x="-3.9375" y="375.62015" font-weight="400" font-size="9px" dy="2.9">HIDROELECTRICIDAD</text>
<rect id="label6_bg" class="for_r6" x="-37.625" y="398.26787" width="37.42839" height="13.6" rx="2.5" fill="#fff" fill-opacity="0.5" stroke="none" stroke-width="0" stroke-opacity="0"></rect>
<text id="label6" class="for_r6" text-anchor="end" x="-3.9375" y="405.16787" font-weight="400" font-size="9px" dy="2.9">SOLAR</text>
<rect id="label7_bg" class="for_r7" x="-41.11458" y="418.55455" width="40.42546" height="14.26667" rx="2.5" fill="#fff" fill-opacity="0.5" stroke="none" stroke-width="0" stroke-opacity="0"></rect>
<text id="label7" class="for_r7" text-anchor="end" x="-3.9375" y="425.92787" font-weight="400" font-size="9px" dy="3.09333">EÓLICO</text>
<rect id="label8_bg" class="for_r8" x="-44.61458" y="621.39214" width="43.92351" height="13.6" rx="2.5" fill="#fff" fill-opacity="0.5" stroke="none" stroke-width="0" stroke-opacity="0"></rect>
<text id="label8" class="for_r8" text-anchor="end" x="-3.9375" y="628.29209" font-weight="400" font-size="9px" dy="2.9">BAGAZO</text>
<rect id="label9_bg" class="for_r9" x="723.60714" y="654.35277" width="124.11182" height="13.6" rx="2.5" fill="#fff" fill-opacity="0.5" stroke="none" stroke-width="0" stroke-opacity="0"></rect>
<text id="label9" class="for_r9" text-anchor="start" x="726.52375" y="661.25274" font-weight="400" font-size="9px" dy="2.9">PLANTAS DE DESTILACION</text>
<rect id="label10_bg" class="for_r10" x="-82.625" y="-5.99721" width="82.25831" height="13.6" rx="2.5" fill="#fff" fill-opacity="0.5" stroke="none" stroke-width="0" stroke-opacity="0"></rect>
<text id="label10" class="for_r10" text-anchor="end" x="-3.9375" y="0.90279" font-weight="400" font-size="9px" dy="2.9">OTROS BIOMASA</text>
<rect id="label11_bg" class="for_r11" x="723.60714" y="-5.99721" width="96.77604" height="13.6" rx="2.5" fill="#fff" fill-opacity="0.5" stroke="none" stroke-width="0" stroke-opacity="0"></rect>
<text id="label11" class="for_r11" text-anchor="start" x="726.52375" y="0.90279" font-weight="400" font-size="9px" dy="2.9">PLANTAS BIODIESEL</text>
<rect id="label12_bg" class="for_r12" x="-30.625" y="47.2458" width="30.25781" height="14.26667" rx="2.5" fill="#fff" fill-opacity="0.5" stroke="none" stroke-width="0" stroke-opacity="0"></rect>
<text id="label12" class="for_r12" text-anchor="end" x="-3.9375" y="54.61914" font-weight="400" font-size="9px" dy="3.09333">LEÑA</text>
<rect id="label13_bg" class="for_r13" x="723.60714" y="198.21755" width="69.10417" height="13.6" rx="2.5" fill="#fff" fill-opacity="0.5" stroke="none" stroke-width="0" stroke-opacity="0"></rect>
<text id="label13" class="for_r13" text-anchor="start" x="726.52375" y="205.11754" font-weight="400" font-size="9px" dy="2.9">CARBONERAS</text>
<rect id="label14_bg" class="for_r14" x="447.96377" y="121.18277" width="66.42741" height="13.6" rx="2.5" fill="#fff" fill-opacity="0.5" stroke="none" stroke-width="0" stroke-opacity="0"></rect>
<text id="label14" class="for_r14" text-anchor="middle" x="480.89083" y="128.08277" font-weight="400" font-size="9px" dy="2.9">RESIDENCIAL</text>
<rect id="label15_bg" class="for_r15" x="451.21895" y="227.68869" width="59.91911" height="13.6" rx="2.5" fill="#fff" fill-opacity="0.5" stroke="none" stroke-width="0" stroke-opacity="0"></rect>
<text id="label15" class="for_r15" text-anchor="middle" x="480.89083" y="234.58869" font-weight="400" font-size="9px" dy="2.9">COMERCIAL</text>
<rect id="label16_bg" class="for_r16" x="451.21895" y="326.68383" width="59.91911" height="13.6" rx="2.5" fill="#fff" fill-opacity="0.5" stroke="none" stroke-width="0" stroke-opacity="0"></rect>
<text id="label16" class="for_r16" text-anchor="middle" x="480.89083" y="333.58384" font-weight="400" font-size="9px" dy="2.9">INDUSTRIAL</text>
<rect id="label17_bg" class="for_r17" x="447.3023" y="484.35259" width="67.42708" height="13.6" rx="2.5" fill="#fff" fill-opacity="0.5" stroke="none" stroke-width="0" stroke-opacity="0"></rect>
<text id="label17" class="for_r17" text-anchor="middle" x="480.89083" y="491.25259" font-weight="400" font-size="9px" dy="2.9">TRANSPORTE</text>
<rect id="label18_bg" class="for_r18" x="454.04708" y="631.55339" width="53.92546" height="13.6" rx="2.5" fill="#fff" fill-opacity="0.5" stroke="none" stroke-width="0" stroke-opacity="0"></rect>
<text id="label18" class="for_r18" text-anchor="middle" x="480.89083" y="638.45335" font-weight="400" font-size="9px" dy="2.9">AGRICOLA</text>
<rect id="label19_bg" class="for_r19" x="459.97417" y="576.31096" width="42.41618" height="13.6" rx="2.5" fill="#fff" fill-opacity="0.5" stroke="none" stroke-width="0" stroke-opacity="0"></rect>
<text id="label19" class="for_r19" text-anchor="middle" x="480.89083" y="583.21093" font-weight="400" font-size="9px" dy="2.9">MINERO</text>
<rect id="label20_bg" class="for_r20" x="461.96895" y="604.81926" width="38.09375" height="13.6" rx="2.5" fill="#fff" fill-opacity="0.5" stroke="none" stroke-width="0" stroke-opacity="0"></rect>
<text id="label20" class="for_r20" text-anchor="middle" x="480.89083" y="611.71924" font-weight="400" font-size="9px" dy="2.9">OTROS</text>
<rect id="label21_bg" class="for_r21" x="723.60714" y="327.74922" width="75.41423" height="13.6" rx="2.5" fill="#fff" fill-opacity="0.5" stroke="none" stroke-width="0" stroke-opacity="0"></rect>
<text id="label21" class="for_r21" text-anchor="start" x="726.52375" y="334.6492" font-weight="400" font-size="9px" dy="2.9">CONSUMO UTIL</text>
<rect id="label22_bg" class="for_r22" x="723.60714" y="403.7882" width="52.10417" height="13.6" rx="2.5" fill="#fff" fill-opacity="0.5" stroke="none" stroke-width="0" stroke-opacity="0"></rect>
<text id="label22" class="for_r22" text-anchor="start" x="726.52375" y="410.68821" font-weight="400" font-size="9px" dy="2.9">PERDIDAS</text>
</g>
</g></svg>